<svg id="OBJECTS" xmlns="http://www.w3.org/2000/svg" xmlns:xlink="http://www.w3.org/1999/xlink" viewBox="0 0 377.65 391.31"><defs><style>.cls-1{fill:url(#linear-gradient);}.cls-2{fill:url(#linear-gradient-2);}.cls-3{fill:url(#linear-gradient-3);}.cls-4,.cls-8{opacity:0.34;}.cls-4{fill:url(#Degradado_sin_nombre_24);}.cls-5{opacity:0.29;fill:url(#Degradado_sin_nombre_24-2);}.cls-6{opacity:0.49;fill:url(#Degradado_sin_nombre_23);}.cls-7{opacity:0.38;fill:url(#Degradado_sin_nombre_23-2);}.cls-8{fill:url(#Degradado_sin_nombre_24-3);}.cls-10,.cls-9{opacity:0.24;}.cls-9{fill:url(#Degradado_sin_nombre_23-3);}.cls-10{fill:url(#Degradado_sin_nombre_23-4);}</style><linearGradient id="linear-gradient" x1="438.92" y1="421.49" x2="256.46" y2="326.44" gradientTransform="matrix(1, 0, 0, 1, 0.29, 1.31)" gradientUnits="userSpaceOnUse"><stop offset="0" stop-color="#231f20"/><stop offset="1" stop-color="#fff"/></linearGradient><linearGradient id="linear-gradient-2" x1="263.81" y1="288.06" x2="105.1" y2="334.74" gradientTransform="matrix(1, 0, 0, 1, 0.29, 1.31)" gradientUnits="userSpaceOnUse"><stop offset="0" stop-color="#fff"/><stop offset="1" stop-color="#231f20"/></linearGradient><linearGradient id="linear-gradient-3" x1="326.08" y1="106.46" x2="86.77" y2="461.2" gradientTransform="matrix(1, 0, 0, 1, 0.29, 1.31)" gradientUnits="userSpaceOnUse"><stop offset="0" stop-color="#231f20"/><stop offset="0.52" stop-color="#fff"/><stop offset="1"/></linearGradient><linearGradient id="Degradado_sin_nombre_24" x1="159.14" y1="392.09" x2="126.46" y2="259.69" gradientTransform="matrix(1, 0, 0, 1, 0.29, 1.31)" gradientUnits="userSpaceOnUse"><stop offset="0"/><stop offset="1" stop-opacity="0"/></linearGradient><linearGradient id="Degradado_sin_nombre_24-2" x1="136.14" y1="389.94" x2="167.12" y2="305.49" xlink:href="#Degradado_sin_nombre_24"/><linearGradient id="Degradado_sin_nombre_23" x1="470.53" y1="443.25" x2="324.13" y2="313.83" gradientTransform="matrix(1, 0, 0, 1, 0.29, 1.31)" gradientUnits="userSpaceOnUse"><stop offset="0" stop-color="#fff"/><stop offset="1" stop-color="#fff" stop-opacity="0"/></linearGradient><linearGradient id="Degradado_sin_nombre_23-2" x1="338.67" y1="320.55" x2="430.61" y2="394.66" xlink:href="#Degradado_sin_nombre_23"/><linearGradient id="Degradado_sin_nombre_24-3" x1="253.05" y1="394.17" x2="284.59" y2="308.19" xlink:href="#Degradado_sin_nombre_24"/><linearGradient id="Degradado_sin_nombre_23-3" x1="307.98" y1="36.59" x2="289.31" y2="249.61" xlink:href="#Degradado_sin_nombre_23"/><linearGradient id="Degradado_sin_nombre_23-4" x1="284.17" y1="39.52" x2="358.86" y2="126.51" xlink:href="#Degradado_sin_nombre_23"/></defs><path class="cls-1" d="M415.63,437.82H415c-39.31.15-87.73-21.1-150.87-65.26q-6-4.21-12.26-8.72s29-47.94,32.62-56c.68.47,1.33,1,2,1.42q5.4,3.94,10.55,7.6c1.6,1.08,3.16,2.16,4.7,3.24,53.23,37.11,84.81,49,102.34,52.2,17.19,3.2,23.39-1,28.37-4.45l10.72,15.71v0l.07.07C458.73,406.29,443,437.54,415.63,437.82Z" transform="translate(-71.7 -46.51)"/><path class="cls-2" d="M226.79,279.1a351,351,0,0,1-21.64,40.31,120.83,120.83,0,0,1-13.82,18.18c-17.73-1.46-30.44,3.51-37,7.06a49.12,49.12,0,0,0-9.21,6.35,9.7,9.7,0,0,0,5,16.86l.14,0c-2.18,0-32.32-.42-34.3-30.9v0c-.79-12.11,2.88-29,14.44-52.37a126.37,126.37,0,0,1,32.45-9.76C182.12,271.63,203.78,272.39,226.79,279.1Z" transform="translate(-71.7 -46.51)"/><path class="cls-3" d="M356.82,107a62.43,62.43,0,0,1-2.68,18.27c-2.38,7.89-5,16.32-7.79,25.16-9.12,28.51-20.44,61.28-33.56,94q-14,35-28.28,63.39c-3.63,8.06-32.62,56-32.62,56a246.52,246.52,0,0,1-28.35,34.53c-26.38,26.24-53.57,37.28-81.83,33.41C89.27,424.64,76.38,392,73.27,378.33c-6.94-30.56,9.44-64,41.64-85.23a119.54,119.54,0,0,1,15.52-8.52c-40.77,82.48,16.85,83.32,19.87,83.31h.13c7.95,1.09,22.22-6.16,40.9-30.3,17.52-18.2,35.46-58.49,35.46-58.49,8.29-16.6,17.05-36,26.16-58.66,23.21-57.9,40.74-117.11,49.62-149.29,2.38-8.57,4.15-15.26,5.26-19.47.8-3.23,1.27-5.07,1.3-5.17A62.59,62.59,0,0,1,356.82,107Z" transform="translate(-71.7 -46.51)"/><path class="cls-4" d="M150.16,367.86l.14,0c-3,0-60.64-.83-19.87-83.31a126.37,126.37,0,0,1,32.45-9.76c-11.48,15-56.26,77.79-15.64,92.13C148.16,367.29,149.14,367.59,150.16,367.86Z" transform="translate(-71.7 -46.51)"/><path class="cls-5" d="M205.15,319.41a120.83,120.83,0,0,1-13.82,18.18c-17.73-1.46-30.44,3.51-37,7.06a49.12,49.12,0,0,0-9.21,6.35,9.7,9.7,0,0,0,5,16.86l.14,0c-2.18,0-32.32-.42-34.3-30.9v0C122.63,323.69,143.73,310.54,205.15,319.41Z" transform="translate(-71.7 -46.51)"/><path class="cls-6" d="M417.61,411.5c-41.13,4.23-101.27-72-115.87-91.4,12.22,8.51,23.31,15.7,33.35,21.77,33.65,20.35,55.51,27.94,69,30.43,16.79,3.13,23.09-.83,28-4.21.13-.07.23-.17.37-.24l10.72,15.71v0C445.15,396,441.26,409.07,417.61,411.5Z" transform="translate(-71.7 -46.51)"/><path class="cls-7" d="M424.46,393.24c-17.18,7.91-62.12-27.57-89.37-51.37,33.65,20.35,55.51,27.94,69,30.43,16.79,3.13,23.09-.83,28-4.21C435.54,378,435.44,388.18,424.46,393.24Z" transform="translate(-71.7 -46.51)"/><path class="cls-8" d="M297,316.86c-8.57,15.24-21.79,38.2-32.89,55.7q-6-4.21-12.26-8.72s29-47.94,32.62-56c.68.47,1.33,1,2,1.42Q291.89,313.21,297,316.86Z" transform="translate(-71.7 -46.51)"/><path class="cls-9" d="M356.82,107a62.43,62.43,0,0,1-2.68,18.27C344,158.72,330,201.61,312.79,244.45q-14,35-28.28,63.39c-3.63,8.06-32.62,56-32.62,56a246.52,246.52,0,0,1-28.35,34.53C262.93,328.12,304.25,212,320.3,156c15-52.27-5.1-75.72-17.73-84.84,4.22-15.16,6.49-24.37,6.56-24.64A62.59,62.59,0,0,1,356.82,107Z" transform="translate(-71.7 -46.51)"/><path class="cls-10" d="M356.82,107a62.43,62.43,0,0,1-2.68,18.27c-2.38,7.89-5,16.32-7.79,25.16,10.35-65.16-22.74-90.53-38.52-98.75.8-3.23,1.27-5.07,1.3-5.17A62.59,62.59,0,0,1,356.82,107Z" transform="translate(-71.7 -46.51)"/></svg>